<svg xmlns="http://www.w3.org/2000/svg" width="120" height="120" viewBox="0 0 120 120" role="img" aria-label="Comet, cat astronaut">
  <title>Comet</title>
  <rect width="120" height="120" rx="18" fill="#7FE0C3"/>
  
    <circle cx="16" cy="18" r="2" fill="#FFF1DC"/><circle cx="104" cy="16" r="1.6" fill="#FFF1DC"/><circle cx="12" cy="70" r="1.4" fill="#FFF1DC"/>
    <path d="M0 108 L46 42 L80 76 Z" fill="#FFF1DC"/>
    <path d="M10 120 L56 58 L84 84 Z" fill="#FFD25E" opacity=".8"/>
    <circle cx="72" cy="58" r="36" fill="#FFD25E" stroke="#1B1F3B" stroke-width="3"/>
    <g transform="translate(72 64) scale(0.82)">
    <path d="M-22 -2 L-20 -28 L-6 -16 Z M22 -2 L20 -28 L6 -16 Z" fill="#F28C3A" stroke="#1B1F3B" stroke-width="2.6" stroke-linejoin="round"/>
    <path d="M-18 -12 L-17 -22 L-11 -16 Z M18 -12 L17 -22 L11 -16 Z" fill="#FFB7A0"/>
    <ellipse cx="0" cy="0" rx="24" ry="20" fill="#F28C3A" stroke="#1B1F3B" stroke-width="2.6"/>
    <path d="M-7 -18 L-5 -11 M0 -20 V-12 M7 -18 L5 -11" stroke="#C9631C" stroke-width="3" stroke-linecap="round"/>
    <ellipse cx="-9" cy="-3" rx="3.6" ry="4.2" fill="#1B1F3B"/><ellipse cx="9" cy="-3" rx="3.6" ry="4.2" fill="#1B1F3B"/>
      <circle cx="-7.7" cy="-4.2" r="1.2" fill="#fff"/><circle cx="10.3" cy="-4.2" r="1.2" fill="#fff"/>
    <path d="M-2.5 4 H2.5 L0 7 Z" fill="#FF7A8A" stroke="#1B1F3B" stroke-width="1.5" stroke-linejoin="round"/>
    <path d="M0 7 C0 10 -4 11 -5 9 M0 7 C0 10 4 11 5 9" fill="none" stroke="#1B1F3B" stroke-width="1.8" stroke-linecap="round"/>
    <path d="M-14 5 L-26 3 M-14 8 L-25 10 M14 5 L26 3 M14 8 L25 10" stroke="#1B1F3B" stroke-width="1.5" stroke-linecap="round"/>
  </g>
</svg>
